<svg width="12" height="12" viewBox="0 0 12 12" fill="none" xmlns="http://www.w3.org/2000/svg">
<circle cx="5.99961" cy="6.0001" r="5.05" stroke="#727272" stroke-width="1.2"/>
<path d="M6.35418 7.21898H4.81507V6.24822H6.35418C6.59203 6.24822 6.78563 6.2095 6.93498 6.13206C7.08433 6.05186 7.19357 5.94123 7.26272 5.80018C7.33186 5.65913 7.36643 5.5001 7.36643 5.32309C7.36643 5.14332 7.33186 4.976 7.26272 4.82112C7.19357 4.66624 7.08433 4.54178 6.93498 4.44775C6.78563 4.35371 6.59203 4.3067 6.35418 4.3067H5.24652V9.37208H4.00195V3.33179H6.35418C6.82712 3.33179 7.23229 3.41752 7.56971 3.589C7.90989 3.75771 8.16987 3.99141 8.34964 4.2901C8.52941 4.5888 8.61929 4.93036 8.61929 5.3148C8.61929 5.70476 8.52941 6.04218 8.34964 6.32704C8.16987 6.61191 7.90989 6.83178 7.56971 6.98666C7.23229 7.14154 6.82712 7.21898 6.35418 7.21898Z" fill="#727272"/>
</svg>
