<svg width="24" height="24" viewBox="0 0 24 24" fill="none" xmlns="http://www.w3.org/2000/svg">
<circle cx="12" cy="12" r="11.5" fill="white" stroke="#DFDFDF"/>
<path d="M12 4.75C16.1417 4.75 19.5 8.10833 19.5 12.25C19.5 16.3917 16.1417 19.75 12 19.75C7.85833 19.75 4.5 16.3917 4.5 12.25C4.5 10.175 5.34167 8.30833 6.7 6.95L7.88333 8.13333C6.825 9.18333 6.16667 10.6417 6.16667 12.25C6.16667 15.475 8.775 18.0833 12 18.0833C15.225 18.0833 17.8333 15.475 17.8333 12.25C17.8333 9.025 15.225 6.41667 12 6.41667L12 8.91667L8.64167 5.55L8.75833 5.49167L12 2.25L12 4.75Z" fill="#B7B7B7"/>
</svg>
